<svg xmlns="http://www.w3.org/2000/svg" xmlns:xlink="http://www.w3.org/1999/xlink" viewBox="0 0 1335 1335"><defs><clipPath id="a" transform="translate(178.38 178.11)"><circle cx="489.3" cy="489.3" r="475.3" style="fill:none"></circle></clipPath><radialGradient id="b" cx="466.56" cy="509.06" r="269.37" gradientUnits="userSpaceOnUse"><stop offset="0" stop-color="#fff"></stop><stop offset="0.43" stop-color="#eaeaea"></stop><stop offset="1" stop-color="#c8c8c8"></stop></radialGradient><radialGradient id="c" cx="557.8" cy="414.69" r="215.24" xlink:href="#b"></radialGradient></defs><title>winbox_icon копия</title><g style="clip-path:url(#a)"><image width="1335" height="1335"></image></g><path d="M489.3,978.6A489.43,489.43,0,0,1,298.84,38.46,489.42,489.42,0,0,1,679.76,940.15,486.25,486.25,0,0,1,489.3,978.6Zm0-950.6A461.43,461.43,0,0,0,309.75,914.36,461.42,461.42,0,0,0,668.86,64.25,458.4,458.4,0,0,0,489.3,28Z" transform="translate(178.38 178.11)" style="fill:#eee"></path><path d="M224.26,241.51c0.46,113.37,57.38,242.94,163.44,347S624.39,747,737.74,745.24c-119,63.5-289.68,29.47-413.54-92S163.06,361.71,224.26,241.51Z" transform="translate(178.38 178.11)" style="fill:url(#b)"></path><path d="M364.2,200.92C364.56,291.5,410,395,494.79,478.16S683.91,604.78,774.48,603.41C679.4,654.15,543,627,444.05,529.87S315.29,297,364.2,200.92Z" transform="translate(178.38 178.11)" style="fill:url(#c)"></path></svg>